<?xml version="1.0" standalone="no"?>
<!DOCTYPE svg PUBLIC "-//W3C//DTD SVG 20010904//EN"
 "http://www.w3.org/TR/2001/REC-SVG-20010904/DTD/svg10.dtd">
<svg version="1.0" xmlns="http://www.w3.org/2000/svg"
 width="290.000000pt" height="290.000000pt" viewBox="0 0 290.000000 290.000000"
 preserveAspectRatio="xMidYMid meet">
<metadata>
Created by potrace 1.14, written by Peter Selinger 2001-2017
</metadata>
<g transform="translate(0.000000,290.000000) scale(0.100000,-0.100000)"
fill="#000000" stroke="none">
<path d="M1130 1950 c-35 -69 -40 -67 153 -53 219 17 436 39 443 46 3 3 3 15
-1 26 -6 21 -12 21 -290 21 l-285 0 -20 -40z"/>
<path d="M1390 1879 c-195 -16 -364 -33 -376 -38 -17 -8 -71 -117 -62 -127 2
-1 206 17 453 42 248 24 451 44 453 44 7 0 0 29 -15 67 -22 52 25 51 -453 12z"/>
<path d="M1313 1721 c-260 -25 -476 -50 -482 -56 -13 -13 -64 -116 -59 -120 8
-7 1207 111 1216 120 3 3 -5 28 -18 55 l-23 50 -81 -1 c-45 -1 -293 -23 -553
-48z"/>
<path d="M1925 1623 c-477 -41 -1279 -123 -1287 -131 -12 -13 -66 -157 -59
-159 14 -5 1561 153 1567 160 5 4 -6 37 -24 72 l-32 65 -62 -2 c-35 -1 -81 -3
-103 -5z"/>
<path d="M1805 1429 c-483 -52 -1276 -129 -1325 -129 -39 0 -39 0 -75 -76 -19
-42 -35 -81 -35 -86 0 -6 27 -8 68 -4 37 4 467 45 955 91 489 47 898 85 908
85 32 0 33 26 1 95 l-31 65 -53 -1 c-29 -1 -215 -19 -413 -40z"/>
<path d="M1635 1219 c-324 -32 -756 -74 -960 -94 -203 -19 -392 -38 -419 -42
l-49 -6 -33 -73 c-42 -90 -43 -104 -6 -104 30 0 924 73 1767 145 292 25 542
49 557 53 l27 7 -37 85 -38 85 -109 1 c-70 1 -327 -20 -700 -57z"/>
<path d="M1375 974 c-671 -56 -1221 -103 -1223 -103 -11 -2 101 -194 154 -263
376 -502 1039 -703 1624 -492 325 116 618 369 775 666 l48 91 -18 51 c-10 28
-29 75 -42 104 -23 49 -26 52 -61 51 -20 -1 -586 -48 -1257 -105z"/>
</g>
</svg>
